# Kenney CC0 ground with authored static directional shadows
mtllib Ground.mtl
usemtl ground
v -0.5000000 0.0200000 -0.5000000
v 0.5000000 0.0000000 -0.5000000
v -0.5000000 0.0000000 -0.5000000
vt 0.52500000 0.18333333
vt 0.54500000 0.18333333
vt 0.52500000 0.18333333
f 1/1 2/2 3/3
v 0.5000000 0.0000000 -0.5000000
v -0.5000000 0.0200000 -0.5000000
v 0.5000000 0.0200000 -0.5000000
vt 0.54500000 0.18333333
vt 0.52500000 0.18333333
vt 0.54500000 0.18333333
f 4/4 5/5 6/6
v 0.5000000 0.0200000 0.5000000
v -0.5000000 0.0000000 0.5000000
v 0.5000000 0.0000000 0.5000000
vt 0.54500000 0.21666667
vt 0.52500000 0.21666667
vt 0.54500000 0.21666667
f 7/7 8/8 9/9
v -0.5000000 0.0000000 0.5000000
v 0.5000000 0.0200000 0.5000000
v -0.5000000 0.0200000 0.5000000
vt 0.52500000 0.21666667
vt 0.54500000 0.21666667
vt 0.52500000 0.21666667
f 10/10 11/11 12/12
v 0.5000000 0.0200000 0.5000000
v 0.5000000 0.0000000 -0.5000000
v 0.5000000 0.0200000 -0.5000000
vt 0.54500000 0.21666667
vt 0.54500000 0.18333333
vt 0.54500000 0.18333333
f 13/13 14/14 15/15
v 0.5000000 0.0000000 -0.5000000
v 0.5000000 0.0200000 0.5000000
v 0.5000000 0.0000000 0.5000000
vt 0.54500000 0.18333333
vt 0.54500000 0.21666667
vt 0.54500000 0.21666667
f 16/16 17/17 18/18
v -0.5000000 0.0200000 -0.5000000
v 0.5000000 0.0200000 0.5000000
v 0.5000000 0.0200000 -0.5000000
vt 0.52500000 0.18333333
vt 0.54500000 0.21666667
vt 0.54500000 0.18333333
f 19/19 20/20 21/21
v 0.5000000 0.0200000 0.5000000
v -0.5000000 0.0200000 -0.5000000
v -0.5000000 0.0200000 0.5000000
vt 0.54500000 0.21666667
vt 0.52500000 0.18333333
vt 0.52500000 0.21666667
f 22/22 23/23 24/24
v -0.5000000 0.0000000 0.5000000
v 0.5000000 0.0000000 -0.5000000
v 0.5000000 0.0000000 0.5000000
vt 0.52500000 0.21666667
vt 0.54500000 0.18333333
vt 0.54500000 0.21666667
f 25/25 26/26 27/27
v 0.5000000 0.0000000 -0.5000000
v -0.5000000 0.0000000 0.5000000
v -0.5000000 0.0000000 -0.5000000
vt 0.54500000 0.18333333
vt 0.52500000 0.21666667
vt 0.52500000 0.18333333
f 28/28 29/29 30/30
v -0.5000000 0.0000000 0.5000000
v -0.5000000 0.0200000 -0.5000000
v -0.5000000 0.0000000 -0.5000000
vt 0.52500000 0.21666667
vt 0.52500000 0.18333333
vt 0.52500000 0.18333333
f 31/31 32/32 33/33
v -0.5000000 0.0200000 -0.5000000
v -0.5000000 0.0000000 0.5000000
v -0.5000000 0.0200000 0.5000000
vt 0.52500000 0.18333333
vt 0.52500000 0.21666667
vt 0.52500000 0.21666667
f 34/34 35/35 36/36
v -0.5000000 0.0200000 -0.5000000
v 0.5000000 0.0000000 -0.5000000
v -0.5000000 0.0000000 -0.5000000
vt 0.52500000 0.18333333
vt 0.54500000 0.18333333
vt 0.52500000 0.18333333
f 37/37 38/38 39/39
v 0.5000000 0.0000000 -0.5000000
v -0.5000000 0.0200000 -0.5000000
v 0.5000000 0.0200000 -0.5000000
vt 0.54500000 0.18333333
vt 0.52500000 0.18333333
vt 0.54500000 0.18333333
f 40/40 41/41 42/42
v 0.5000000 0.0200000 0.5000000
v -0.5000000 0.0000000 0.5000000
v 0.5000000 0.0000000 0.5000000
vt 0.54500000 0.21666667
vt 0.52500000 0.21666667
vt 0.54500000 0.21666667
f 43/43 44/44 45/45
v -0.5000000 0.0000000 0.5000000
v 0.5000000 0.0200000 0.5000000
v -0.5000000 0.0200000 0.5000000
vt 0.52500000 0.21666667
vt 0.54500000 0.21666667
vt 0.52500000 0.21666667
f 46/46 47/47 48/48
v 0.5000000 0.0200000 0.5000000
v 0.5000000 0.0000000 -0.5000000
v 0.5000000 0.0200000 -0.5000000
vt 0.54500000 0.21666667
vt 0.54500000 0.18333333
vt 0.54500000 0.18333333
f 49/49 50/50 51/51
v 0.5000000 0.0000000 -0.5000000
v 0.5000000 0.0200000 0.5000000
v 0.5000000 0.0000000 0.5000000
vt 0.54500000 0.18333333
vt 0.54500000 0.21666667
vt 0.54500000 0.21666667
f 52/52 53/53 54/54
v -0.5000000 0.0200000 -0.5000000
v 0.5000000 0.0200000 0.5000000
v 0.5000000 0.0200000 -0.5000000
vt 0.52500000 0.18333333
vt 0.54500000 0.21666667
vt 0.54500000 0.18333333
f 55/55 56/56 57/57
v 0.5000000 0.0200000 0.5000000
v -0.5000000 0.0200000 -0.5000000
v -0.5000000 0.0200000 0.5000000
vt 0.54500000 0.21666667
vt 0.52500000 0.18333333
vt 0.52500000 0.21666667
f 58/58 59/59 60/60
v -0.5000000 0.0000000 0.5000000
v 0.5000000 0.0000000 -0.5000000
v 0.5000000 0.0000000 0.5000000
vt 0.52500000 0.21666667
vt 0.54500000 0.18333333
vt 0.54500000 0.21666667
f 61/61 62/62 63/63
v 0.5000000 0.0000000 -0.5000000
v -0.5000000 0.0000000 0.5000000
v -0.5000000 0.0000000 -0.5000000
vt 0.54500000 0.18333333
vt 0.52500000 0.21666667
vt 0.52500000 0.18333333
f 64/64 65/65 66/66
v -0.5000000 0.0000000 0.5000000
v -0.5000000 0.0200000 -0.5000000
v -0.5000000 0.0000000 -0.5000000
vt 0.52500000 0.21666667
vt 0.52500000 0.18333333
vt 0.52500000 0.18333333
f 67/67 68/68 69/69
v -0.5000000 0.0200000 -0.5000000
v -0.5000000 0.0000000 0.5000000
v -0.5000000 0.0200000 0.5000000
vt 0.52500000 0.18333333
vt 0.52500000 0.21666667
vt 0.52500000 0.21666667
f 70/70 71/71 72/72
