{
  "asset": {
    "version": "2.0",
    "generator": "WP1 skeletal validation"
  },
  "scene": 0,
  "scenes": [
    {
      "nodes": [
        0
      ]
    }
  ],
  "nodes": [
    {
      "name": "SceneRoot",
      "children": [
        1,
        2
      ]
    },
    {
      "name": "Body",
      "mesh": 0,
      "skin": 0
    },
    {
      "name": "Root",
      "children": [
        3
      ]
    },
    {
      "name": "Upper",
      "translation": [
        0,
        1,
        0
      ],
      "children": [
        4
      ]
    },
    {
      "name": "Tip",
      "translation": [
        0,
        1,
        0
      ]
    }
  ],
  "meshes": [
    {
      "primitives": [
        {
          "attributes": {
            "POSITION": 0,
            "JOINTS_0": 1,
            "WEIGHTS_0": 2
          },
          "indices": 3
        }
      ]
    }
  ],
  "skins": [
    {
      "joints": [
        2,
        3
      ],
      "inverseBindMatrices": 4,
      "skeleton": 2
    }
  ],
  "animations": [
    {
      "name": "Advance",
      "samplers": [
        {
          "input": 9,
          "output": 10,
          "interpolation": "LINEAR"
        }
      ],
      "channels": [
        {
          "sampler": 0,
          "target": {
            "node": 2,
            "path": "translation"
          }
        }
      ]
    },
    {
      "name": "Turn",
      "samplers": [
        {
          "input": 9,
          "output": 10,
          "interpolation": "LINEAR"
        },
        {
          "input": 9,
          "output": 11,
          "interpolation": "LINEAR"
        }
      ],
      "channels": [
        {
          "sampler": 0,
          "target": {
            "node": 2,
            "path": "translation"
          }
        },
        {
          "sampler": 1,
          "target": {
            "node": 2,
            "path": "rotation"
          }
        }
      ]
    }
  ],
  "buffers": [
    {
      "byteLength": 708,
      "uri": "data:application/octet-stream;base64,"
    }
  ],
  "bufferViews": [
    {
      "buffer": 0,
      "byteOffset": 0,
      "byteLength": 96
    },
    {
      "buffer": 0,
      "byteOffset": 96,
      "byteLength": 64
    },
    {
      "buffer": 0,
      "byteOffset": 160,
      "byteLength": 128
    },
    {
      "buffer": 0,
      "byteOffset": 288,
      "byteLength": 72
    },
    {
      "buffer": 0,
      "byteOffset": 360,
      "byteLength": 128
    },
    {
      "buffer": 0,
      "byteOffset": 488,
      "byteLength": 12
    },
    {
      "buffer": 0,
      "byteOffset": 500,
      "byteLength": 48
    },
    {
      "buffer": 0,
      "byteOffset": 548,
      "byteLength": 48
    },
    {
      "buffer": 0,
      "byteOffset": 596,
      "byteLength": 48
    },
    {
      "buffer": 0,
      "byteOffset": 644,
      "byteLength": 8
    },
    {
      "buffer": 0,
      "byteOffset": 652,
      "byteLength": 24
    },
    {
      "buffer": 0,
      "byteOffset": 676,
      "byteLength": 32
    }
  ],
  "accessors": [
    {
      "bufferView": 0,
      "componentType": 5126,
      "count": 8,
      "type": "VEC3",
      "min": [
        -0.4,
        0,
        -0.3
      ],
      "max": [
        0.4,
        2,
        0.3
      ]
    },
    {
      "bufferView": 1,
      "componentType": 5123,
      "count": 8,
      "type": "VEC4"
    },
    {
      "bufferView": 2,
      "componentType": 5126,
      "count": 8,
      "type": "VEC4"
    },
    {
      "bufferView": 3,
      "componentType": 5123,
      "count": 36,
      "type": "SCALAR"
    },
    {
      "bufferView": 4,
      "componentType": 5126,
      "count": 2,
      "type": "MAT4"
    },
    {
      "bufferView": 5,
      "componentType": 5126,
      "count": 3,
      "type": "SCALAR",
      "min": [
        0
      ],
      "max": [
        1
      ]
    },
    {
      "bufferView": 6,
      "componentType": 5126,
      "count": 3,
      "type": "VEC4"
    },
    {
      "bufferView": 7,
      "componentType": 5126,
      "count": 3,
      "type": "VEC4"
    },
    {
      "bufferView": 8,
      "componentType": 5126,
      "count": 3,
      "type": "VEC4"
    },
    {
      "bufferView": 9,
      "componentType": 5126,
      "count": 2,
      "type": "SCALAR",
      "min": [
        0
      ],
      "max": [
        1
      ]
    },
    {
      "bufferView": 10,
      "componentType": 5126,
      "count": 2,
      "type": "VEC3"
    },
    {
      "bufferView": 11,
      "componentType": 5126,
      "count": 2,
      "type": "VEC4"
    }
  ]
}
