mtllib Sign.mtl
vt 0 0
vt 1 0
vt 1 1
vt 0 1
usemtl frame
v -1.65 -0.65 0
v 1.65 -0.65 0
v 1.65 0.65 0
v -1.65 0.65 0
f 1 2 3 4
f 4 3 2 1
usemtl frame
v 1.65 -0.65 -0.22
v -1.65 -0.65 -0.22
v -1.65 0.65 -0.22
v 1.65 0.65 -0.22
f 5 6 7 8
f 8 7 6 5
usemtl frame
v -1.65 -0.65 -0.22
v -1.65 -0.65 0
v -1.65 0.65 0
v -1.65 0.65 -0.22
f 9 10 11 12
f 12 11 10 9
usemtl frame
v 1.65 -0.65 0
v 1.65 -0.65 -0.22
v 1.65 0.65 -0.22
v 1.65 0.65 0
f 13 14 15 16
f 16 15 14 13
usemtl frame
v -1.65 0.65 0
v 1.65 0.65 0
v 1.65 0.65 -0.22
v -1.65 0.65 -0.22
f 17 18 19 20
f 20 19 18 17
usemtl frame
v -1.65 -0.65 -0.22
v 1.65 -0.65 -0.22
v 1.65 -0.65 0
v -1.65 -0.65 0
f 21 22 23 24
f 24 23 22 21
usemtl frame
v -1.165 -2.0 -0.08
v -1.0350000000000001 -2.0 -0.08
v -1.0350000000000001 -0.6 -0.08
v -1.165 -0.6 -0.08
f 25 26 27 28
f 28 27 26 25
usemtl frame
v -1.0350000000000001 -2.0 -0.19
v -1.165 -2.0 -0.19
v -1.165 -0.6 -0.19
v -1.0350000000000001 -0.6 -0.19
f 29 30 31 32
f 32 31 30 29
usemtl frame
v -1.165 -2.0 -0.19
v -1.165 -2.0 -0.08
v -1.165 -0.6 -0.08
v -1.165 -0.6 -0.19
f 33 34 35 36
f 36 35 34 33
usemtl frame
v -1.0350000000000001 -2.0 -0.08
v -1.0350000000000001 -2.0 -0.19
v -1.0350000000000001 -0.6 -0.19
v -1.0350000000000001 -0.6 -0.08
f 37 38 39 40
f 40 39 38 37
usemtl frame
v -1.165 -0.6 -0.08
v -1.0350000000000001 -0.6 -0.08
v -1.0350000000000001 -0.6 -0.19
v -1.165 -0.6 -0.19
f 41 42 43 44
f 44 43 42 41
usemtl frame
v -1.165 -2.0 -0.19
v -1.0350000000000001 -2.0 -0.19
v -1.0350000000000001 -2.0 -0.08
v -1.165 -2.0 -0.08
f 45 46 47 48
f 48 47 46 45
usemtl frame
v 1.0350000000000001 -2.0 -0.08
v 1.165 -2.0 -0.08
v 1.165 -0.6 -0.08
v 1.0350000000000001 -0.6 -0.08
f 49 50 51 52
f 52 51 50 49
usemtl frame
v 1.165 -2.0 -0.19
v 1.0350000000000001 -2.0 -0.19
v 1.0350000000000001 -0.6 -0.19
v 1.165 -0.6 -0.19
f 53 54 55 56
f 56 55 54 53
usemtl frame
v 1.0350000000000001 -2.0 -0.19
v 1.0350000000000001 -2.0 -0.08
v 1.0350000000000001 -0.6 -0.08
v 1.0350000000000001 -0.6 -0.19
f 57 58 59 60
f 60 59 58 57
usemtl frame
v 1.165 -2.0 -0.08
v 1.165 -2.0 -0.19
v 1.165 -0.6 -0.19
v 1.165 -0.6 -0.08
f 61 62 63 64
f 64 63 62 61
usemtl frame
v 1.0350000000000001 -0.6 -0.08
v 1.165 -0.6 -0.08
v 1.165 -0.6 -0.19
v 1.0350000000000001 -0.6 -0.19
f 65 66 67 68
f 68 67 66 65
usemtl frame
v 1.0350000000000001 -2.0 -0.19
v 1.165 -2.0 -0.19
v 1.165 -2.0 -0.08
v 1.0350000000000001 -2.0 -0.08
f 69 70 71 72
f 72 71 70 69
usemtl sign
v -1.55 -0.55 0.012
v 1.55 -0.55 0.012
v 1.55 0.55 0.012
v -1.55 0.55 0.012
f 73/1 74/2 75/3 76/4
f 76/4 75/3 74/2 73/1
