# Original WP1 settings facade
mtllib ControlFacade.mtl
usemtl housing
v 1.750000 2.525000 -1.800000
v 1.750000 2.525000 1.800000
v 1.750000 3.975000 1.800000
v 1.750000 3.975000 -1.800000
f 1 2 3 4
f 4 3 2 1
usemtl housing
v 1.950000 2.525000 -1.800000
v 1.950000 3.975000 -1.800000
v 1.950000 3.975000 1.800000
v 1.950000 2.525000 1.800000
f 5 6 7 8
f 8 7 6 5
usemtl housing
v 1.750000 2.525000 -1.800000
v 1.950000 2.525000 -1.800000
v 1.950000 2.525000 1.800000
v 1.750000 2.525000 1.800000
f 9 10 11 12
f 12 11 10 9
usemtl housing
v 1.750000 3.975000 -1.800000
v 1.750000 3.975000 1.800000
v 1.950000 3.975000 1.800000
v 1.950000 3.975000 -1.800000
f 13 14 15 16
f 16 15 14 13
usemtl housing
v 1.750000 2.525000 -1.800000
v 1.750000 3.975000 -1.800000
v 1.950000 3.975000 -1.800000
v 1.950000 2.525000 -1.800000
f 17 18 19 20
f 20 19 18 17
usemtl housing
v 1.750000 2.525000 1.800000
v 1.950000 2.525000 1.800000
v 1.950000 3.975000 1.800000
v 1.750000 3.975000 1.800000
f 21 22 23 24
f 24 23 22 21
usemtl screen
v 1.940000 2.620000 -1.700000
v 1.940000 2.620000 1.700000
v 1.940000 3.880000 1.700000
v 1.940000 3.880000 -1.700000
f 25 26 27 28
f 28 27 26 25
usemtl screen
v 2.000000 2.620000 -1.700000
v 2.000000 3.880000 -1.700000
v 2.000000 3.880000 1.700000
v 2.000000 2.620000 1.700000
f 29 30 31 32
f 32 31 30 29
usemtl screen
v 1.940000 2.620000 -1.700000
v 2.000000 2.620000 -1.700000
v 2.000000 2.620000 1.700000
v 1.940000 2.620000 1.700000
f 33 34 35 36
f 36 35 34 33
usemtl screen
v 1.940000 3.880000 -1.700000
v 1.940000 3.880000 1.700000
v 2.000000 3.880000 1.700000
v 2.000000 3.880000 -1.700000
f 37 38 39 40
f 40 39 38 37
usemtl screen
v 1.940000 2.620000 -1.700000
v 1.940000 3.880000 -1.700000
v 2.000000 3.880000 -1.700000
v 2.000000 2.620000 -1.700000
f 41 42 43 44
f 44 43 42 41
usemtl screen
v 1.940000 2.620000 1.700000
v 2.000000 2.620000 1.700000
v 2.000000 3.880000 1.700000
v 1.940000 3.880000 1.700000
f 45 46 47 48
f 48 47 46 45
usemtl accent
v 2.020000 3.250000 -0.560000
v 2.020000 3.297048 -0.472311
v 2.020000 3.271564 -0.731059
v 2.020000 3.250000 -0.730000
f 49 50 51 52
f 52 51 50 49
usemtl accent
v 2.020000 3.297048 -0.472311
v 2.020000 3.343643 -0.479223
v 2.020000 3.292920 -0.734227
v 2.020000 3.271564 -0.731059
f 53 54 55 56
f 56 55 54 53
usemtl accent
v 2.020000 3.343643 -0.479223
v 2.020000 3.389337 -0.490669
v 2.020000 3.313863 -0.739473
v 2.020000 3.292920 -0.734227
f 57 58 59 60
f 60 59 58 57
usemtl accent
v 2.020000 3.389337 -0.490669
v 2.020000 3.433688 -0.506538
v 2.020000 3.334190 -0.746747
v 2.020000 3.313863 -0.739473
f 61 62 63 64
f 64 63 62 61
usemtl accent
v 2.020000 3.433688 -0.506538
v 2.020000 3.433845 -0.606051
v 2.020000 3.353707 -0.755977
v 2.020000 3.334190 -0.746747
f 65 66 67 68
f 68 67 66 65
usemtl accent
v 2.020000 3.433845 -0.606051
v 2.020000 3.466672 -0.625727
v 2.020000 3.372225 -0.767077
v 2.020000 3.353707 -0.755977
f 69 70 71 72
f 72 71 70 69
usemtl accent
v 2.020000 3.466672 -0.625727
v 2.020000 3.497413 -0.648526
v 2.020000 3.389567 -0.779938
v 2.020000 3.372225 -0.767077
f 73 74 75 76
f 76 75 74 73
usemtl accent
v 2.020000 3.497413 -0.648526
v 2.020000 3.525772 -0.674228
v 2.020000 3.405563 -0.794437
v 2.020000 3.389567 -0.779938
f 77 78 79 80
f 80 79 78 77
usemtl accent
v 2.020000 3.525772 -0.674228
v 2.020000 3.621045 -0.645491
v 2.020000 3.420062 -0.810433
v 2.020000 3.405563 -0.794437
f 81 82 83 84
f 84 83 82 81
usemtl accent
v 2.020000 3.621045 -0.645491
v 2.020000 3.649105 -0.683326
v 2.020000 3.432923 -0.827775
v 2.020000 3.420062 -0.810433
f 85 86 87 88
f 88 87 86 85
usemtl accent
v 2.020000 3.649105 -0.683326
v 2.020000 3.673322 -0.723730
v 2.020000 3.444023 -0.846293
v 2.020000 3.432923 -0.827775
f 89 90 91 92
f 92 91 90 89
usemtl accent
v 2.020000 3.673322 -0.723730
v 2.020000 3.693462 -0.766312
v 2.020000 3.453253 -0.865810
v 2.020000 3.444023 -0.846293
f 93 94 95 96
f 96 95 94 93
usemtl accent
v 2.020000 3.693462 -0.766312
v 2.020000 3.623207 -0.836789
v 2.020000 3.460527 -0.886137
v 2.020000 3.453253 -0.865810
f 97 98 99 100
f 100 99 98 97
usemtl accent
v 2.020000 3.623207 -0.836789
v 2.020000 3.632506 -0.873915
v 2.020000 3.465773 -0.907080
v 2.020000 3.460527 -0.886137
f 101 102 103 104
f 104 103 102 101
usemtl accent
v 2.020000 3.632506 -0.873915
v 2.020000 3.638122 -0.911773
v 2.020000 3.468941 -0.928436
v 2.020000 3.465773 -0.907080
f 105 106 107 108
f 108 107 106 105
usemtl accent
v 2.020000 3.638122 -0.911773
v 2.020000 3.640000 -0.950000
v 2.020000 3.470000 -0.950000
v 2.020000 3.468941 -0.928436
f 109 110 111 112
f 112 111 110 109
usemtl accent
v 2.020000 3.640000 -0.950000
v 2.020000 3.727689 -0.997048
v 2.020000 3.468941 -0.971564
v 2.020000 3.470000 -0.950000
f 113 114 115 116
f 116 115 114 113
usemtl accent
v 2.020000 3.727689 -0.997048
v 2.020000 3.720777 -1.043643
v 2.020000 3.465773 -0.992920
v 2.020000 3.468941 -0.971564
f 117 118 119 120
f 120 119 118 117
usemtl accent
v 2.020000 3.720777 -1.043643
v 2.020000 3.709331 -1.089337
v 2.020000 3.460527 -1.013863
v 2.020000 3.465773 -0.992920
f 121 122 123 124
f 124 123 122 121
usemtl accent
v 2.020000 3.709331 -1.089337
v 2.020000 3.693462 -1.133688
v 2.020000 3.453253 -1.034190
v 2.020000 3.460527 -1.013863
f 125 126 127 128
f 128 127 126 125
usemtl accent
v 2.020000 3.693462 -1.133688
v 2.020000 3.593949 -1.133845
v 2.020000 3.444023 -1.053707
v 2.020000 3.453253 -1.034190
f 129 130 131 132
f 132 131 130 129
usemtl accent
v 2.020000 3.593949 -1.133845
v 2.020000 3.574273 -1.166672
v 2.020000 3.432923 -1.072225
v 2.020000 3.444023 -1.053707
f 133 134 135 136
f 136 135 134 133
usemtl accent
v 2.020000 3.574273 -1.166672
v 2.020000 3.551474 -1.197413
v 2.020000 3.420062 -1.089567
v 2.020000 3.432923 -1.072225
f 137 138 139 140
f 140 139 138 137
usemtl accent
v 2.020000 3.551474 -1.197413
v 2.020000 3.525772 -1.225772
v 2.020000 3.405563 -1.105563
v 2.020000 3.420062 -1.089567
f 141 142 143 144
f 144 143 142 141
usemtl accent
v 2.020000 3.525772 -1.225772
v 2.020000 3.554509 -1.321045
v 2.020000 3.389567 -1.120062
v 2.020000 3.405563 -1.105563
f 145 146 147 148
f 148 147 146 145
usemtl accent
v 2.020000 3.554509 -1.321045
v 2.020000 3.516674 -1.349105
v 2.020000 3.372225 -1.132923
v 2.020000 3.389567 -1.120062
f 149 150 151 152
f 152 151 150 149
usemtl accent
v 2.020000 3.516674 -1.349105
v 2.020000 3.476270 -1.373322
v 2.020000 3.353707 -1.144023
v 2.020000 3.372225 -1.132923
f 153 154 155 156
f 156 155 154 153
usemtl accent
v 2.020000 3.476270 -1.373322
v 2.020000 3.433688 -1.393462
v 2.020000 3.334190 -1.153253
v 2.020000 3.353707 -1.144023
f 157 158 159 160
f 160 159 158 157
usemtl accent
v 2.020000 3.433688 -1.393462
v 2.020000 3.363211 -1.323207
v 2.020000 3.313863 -1.160527
v 2.020000 3.334190 -1.153253
f 161 162 163 164
f 164 163 162 161
usemtl accent
v 2.020000 3.363211 -1.323207
v 2.020000 3.326085 -1.332506
v 2.020000 3.292920 -1.165773
v 2.020000 3.313863 -1.160527
f 165 166 167 168
f 168 167 166 165
usemtl accent
v 2.020000 3.326085 -1.332506
v 2.020000 3.288227 -1.338122
v 2.020000 3.271564 -1.168941
v 2.020000 3.292920 -1.165773
f 169 170 171 172
f 172 171 170 169
usemtl accent
v 2.020000 3.288227 -1.338122
v 2.020000 3.250000 -1.340000
v 2.020000 3.250000 -1.170000
v 2.020000 3.271564 -1.168941
f 173 174 175 176
f 176 175 174 173
usemtl accent
v 2.020000 3.250000 -1.340000
v 2.020000 3.202952 -1.427689
v 2.020000 3.228436 -1.168941
v 2.020000 3.250000 -1.170000
f 177 178 179 180
f 180 179 178 177
usemtl accent
v 2.020000 3.202952 -1.427689
v 2.020000 3.156357 -1.420777
v 2.020000 3.207080 -1.165773
v 2.020000 3.228436 -1.168941
f 181 182 183 184
f 184 183 182 181
usemtl accent
v 2.020000 3.156357 -1.420777
v 2.020000 3.110663 -1.409331
v 2.020000 3.186137 -1.160527
v 2.020000 3.207080 -1.165773
f 185 186 187 188
f 188 187 186 185
usemtl accent
v 2.020000 3.110663 -1.409331
v 2.020000 3.066312 -1.393462
v 2.020000 3.165810 -1.153253
v 2.020000 3.186137 -1.160527
f 189 190 191 192
f 192 191 190 189
usemtl accent
v 2.020000 3.066312 -1.393462
v 2.020000 3.066155 -1.293949
v 2.020000 3.146293 -1.144023
v 2.020000 3.165810 -1.153253
f 193 194 195 196
f 196 195 194 193
usemtl accent
v 2.020000 3.066155 -1.293949
v 2.020000 3.033328 -1.274273
v 2.020000 3.127775 -1.132923
v 2.020000 3.146293 -1.144023
f 197 198 199 200
f 200 199 198 197
usemtl accent
v 2.020000 3.033328 -1.274273
v 2.020000 3.002587 -1.251474
v 2.020000 3.110433 -1.120062
v 2.020000 3.127775 -1.132923
f 201 202 203 204
f 204 203 202 201
usemtl accent
v 2.020000 3.002587 -1.251474
v 2.020000 2.974228 -1.225772
v 2.020000 3.094437 -1.105563
v 2.020000 3.110433 -1.120062
f 205 206 207 208
f 208 207 206 205
usemtl accent
v 2.020000 2.974228 -1.225772
v 2.020000 2.878955 -1.254509
v 2.020000 3.079938 -1.089567
v 2.020000 3.094437 -1.105563
f 209 210 211 212
f 212 211 210 209
usemtl accent
v 2.020000 2.878955 -1.254509
v 2.020000 2.850895 -1.216674
v 2.020000 3.067077 -1.072225
v 2.020000 3.079938 -1.089567
f 213 214 215 216
f 216 215 214 213
usemtl accent
v 2.020000 2.850895 -1.216674
v 2.020000 2.826678 -1.176270
v 2.020000 3.055977 -1.053707
v 2.020000 3.067077 -1.072225
f 217 218 219 220
f 220 219 218 217
usemtl accent
v 2.020000 2.826678 -1.176270
v 2.020000 2.806538 -1.133688
v 2.020000 3.046747 -1.034190
v 2.020000 3.055977 -1.053707
f 221 222 223 224
f 224 223 222 221
usemtl accent
v 2.020000 2.806538 -1.133688
v 2.020000 2.876793 -1.063211
v 2.020000 3.039473 -1.013863
v 2.020000 3.046747 -1.034190
f 225 226 227 228
f 228 227 226 225
usemtl accent
v 2.020000 2.876793 -1.063211
v 2.020000 2.867494 -1.026085
v 2.020000 3.034227 -0.992920
v 2.020000 3.039473 -1.013863
f 229 230 231 232
f 232 231 230 229
usemtl accent
v 2.020000 2.867494 -1.026085
v 2.020000 2.861878 -0.988227
v 2.020000 3.031059 -0.971564
v 2.020000 3.034227 -0.992920
f 233 234 235 236
f 236 235 234 233
usemtl accent
v 2.020000 2.861878 -0.988227
v 2.020000 2.860000 -0.950000
v 2.020000 3.030000 -0.950000
v 2.020000 3.031059 -0.971564
f 237 238 239 240
f 240 239 238 237
usemtl accent
v 2.020000 2.860000 -0.950000
v 2.020000 2.772311 -0.902952
v 2.020000 3.031059 -0.928436
v 2.020000 3.030000 -0.950000
f 241 242 243 244
f 244 243 242 241
usemtl accent
v 2.020000 2.772311 -0.902952
v 2.020000 2.779223 -0.856357
v 2.020000 3.034227 -0.907080
v 2.020000 3.031059 -0.928436
f 245 246 247 248
f 248 247 246 245
usemtl accent
v 2.020000 2.779223 -0.856357
v 2.020000 2.790669 -0.810663
v 2.020000 3.039473 -0.886137
v 2.020000 3.034227 -0.907080
f 249 250 251 252
f 252 251 250 249
usemtl accent
v 2.020000 2.790669 -0.810663
v 2.020000 2.806538 -0.766312
v 2.020000 3.046747 -0.865810
v 2.020000 3.039473 -0.886137
f 253 254 255 256
f 256 255 254 253
usemtl accent
v 2.020000 2.806538 -0.766312
v 2.020000 2.906051 -0.766155
v 2.020000 3.055977 -0.846293
v 2.020000 3.046747 -0.865810
f 257 258 259 260
f 260 259 258 257
usemtl accent
v 2.020000 2.906051 -0.766155
v 2.020000 2.925727 -0.733328
v 2.020000 3.067077 -0.827775
v 2.020000 3.055977 -0.846293
f 261 262 263 264
f 264 263 262 261
usemtl accent
v 2.020000 2.925727 -0.733328
v 2.020000 2.948526 -0.702587
v 2.020000 3.079938 -0.810433
v 2.020000 3.067077 -0.827775
f 265 266 267 268
f 268 267 266 265
usemtl accent
v 2.020000 2.948526 -0.702587
v 2.020000 2.974228 -0.674228
v 2.020000 3.094437 -0.794437
v 2.020000 3.079938 -0.810433
f 269 270 271 272
f 272 271 270 269
usemtl accent
v 2.020000 2.974228 -0.674228
v 2.020000 2.945491 -0.578955
v 2.020000 3.110433 -0.779938
v 2.020000 3.094437 -0.794437
f 273 274 275 276
f 276 275 274 273
usemtl accent
v 2.020000 2.945491 -0.578955
v 2.020000 2.983326 -0.550895
v 2.020000 3.127775 -0.767077
v 2.020000 3.110433 -0.779938
f 277 278 279 280
f 280 279 278 277
usemtl accent
v 2.020000 2.983326 -0.550895
v 2.020000 3.023730 -0.526678
v 2.020000 3.146293 -0.755977
v 2.020000 3.127775 -0.767077
f 281 282 283 284
f 284 283 282 281
usemtl accent
v 2.020000 3.023730 -0.526678
v 2.020000 3.066312 -0.506538
v 2.020000 3.165810 -0.746747
v 2.020000 3.146293 -0.755977
f 285 286 287 288
f 288 287 286 285
usemtl accent
v 2.020000 3.066312 -0.506538
v 2.020000 3.136789 -0.576793
v 2.020000 3.186137 -0.739473
v 2.020000 3.165810 -0.746747
f 289 290 291 292
f 292 291 290 289
usemtl accent
v 2.020000 3.136789 -0.576793
v 2.020000 3.173915 -0.567494
v 2.020000 3.207080 -0.734227
v 2.020000 3.186137 -0.739473
f 293 294 295 296
f 296 295 294 293
usemtl accent
v 2.020000 3.173915 -0.567494
v 2.020000 3.211773 -0.561878
v 2.020000 3.228436 -0.731059
v 2.020000 3.207080 -0.734227
f 297 298 299 300
f 300 299 298 297
usemtl accent
v 2.020000 3.211773 -0.561878
v 2.020000 3.250000 -0.560000
v 2.020000 3.250000 -0.730000
v 2.020000 3.228436 -0.731059
f 301 302 303 304
f 304 303 302 301
usemtl rail
v 1.990000 2.842500 0.025000
v 1.990000 2.842500 1.575000
v 1.990000 2.897500 1.575000
v 1.990000 2.897500 0.025000
f 305 306 307 308
f 308 307 306 305
usemtl rail
v 2.050000 2.842500 0.025000
v 2.050000 2.897500 0.025000
v 2.050000 2.897500 1.575000
v 2.050000 2.842500 1.575000
f 309 310 311 312
f 312 311 310 309
usemtl rail
v 1.990000 2.842500 0.025000
v 2.050000 2.842500 0.025000
v 2.050000 2.842500 1.575000
v 1.990000 2.842500 1.575000
f 313 314 315 316
f 316 315 314 313
usemtl rail
v 1.990000 2.897500 0.025000
v 1.990000 2.897500 1.575000
v 2.050000 2.897500 1.575000
v 2.050000 2.897500 0.025000
f 317 318 319 320
f 320 319 318 317
usemtl rail
v 1.990000 2.842500 0.025000
v 1.990000 2.897500 0.025000
v 2.050000 2.897500 0.025000
v 2.050000 2.842500 0.025000
f 321 322 323 324
f 324 323 322 321
usemtl rail
v 1.990000 2.842500 1.575000
v 2.050000 2.842500 1.575000
v 2.050000 2.897500 1.575000
v 1.990000 2.897500 1.575000
f 325 326 327 328
f 328 327 326 325
usemtl accent
v 2.030000 2.755000 0.280000
v 2.030000 2.755000 0.420000
v 2.030000 2.985000 0.420000
v 2.030000 2.985000 0.280000
f 329 330 331 332
f 332 331 330 329
usemtl accent
v 2.130000 2.755000 0.280000
v 2.130000 2.985000 0.280000
v 2.130000 2.985000 0.420000
v 2.130000 2.755000 0.420000
f 333 334 335 336
f 336 335 334 333
usemtl accent
v 2.030000 2.755000 0.280000
v 2.130000 2.755000 0.280000
v 2.130000 2.755000 0.420000
v 2.030000 2.755000 0.420000
f 337 338 339 340
f 340 339 338 337
usemtl accent
v 2.030000 2.985000 0.280000
v 2.030000 2.985000 0.420000
v 2.130000 2.985000 0.420000
v 2.130000 2.985000 0.280000
f 341 342 343 344
f 344 343 342 341
usemtl accent
v 2.030000 2.755000 0.280000
v 2.030000 2.985000 0.280000
v 2.130000 2.985000 0.280000
v 2.130000 2.755000 0.280000
f 345 346 347 348
f 348 347 346 345
usemtl accent
v 2.030000 2.755000 0.420000
v 2.130000 2.755000 0.420000
v 2.130000 2.985000 0.420000
v 2.030000 2.985000 0.420000
f 349 350 351 352
f 352 351 350 349
usemtl rail
v 1.990000 3.222500 0.025000
v 1.990000 3.222500 1.575000
v 1.990000 3.277500 1.575000
v 1.990000 3.277500 0.025000
f 353 354 355 356
f 356 355 354 353
usemtl rail
v 2.050000 3.222500 0.025000
v 2.050000 3.277500 0.025000
v 2.050000 3.277500 1.575000
v 2.050000 3.222500 1.575000
f 357 358 359 360
f 360 359 358 357
usemtl rail
v 1.990000 3.222500 0.025000
v 2.050000 3.222500 0.025000
v 2.050000 3.222500 1.575000
v 1.990000 3.222500 1.575000
f 361 362 363 364
f 364 363 362 361
usemtl rail
v 1.990000 3.277500 0.025000
v 1.990000 3.277500 1.575000
v 2.050000 3.277500 1.575000
v 2.050000 3.277500 0.025000
f 365 366 367 368
f 368 367 366 365
usemtl rail
v 1.990000 3.222500 0.025000
v 1.990000 3.277500 0.025000
v 2.050000 3.277500 0.025000
v 2.050000 3.222500 0.025000
f 369 370 371 372
f 372 371 370 369
usemtl rail
v 1.990000 3.222500 1.575000
v 2.050000 3.222500 1.575000
v 2.050000 3.277500 1.575000
v 1.990000 3.277500 1.575000
f 373 374 375 376
f 376 375 374 373
usemtl accent
v 2.030000 3.135000 1.080000
v 2.030000 3.135000 1.220000
v 2.030000 3.365000 1.220000
v 2.030000 3.365000 1.080000
f 377 378 379 380
f 380 379 378 377
usemtl accent
v 2.130000 3.135000 1.080000
v 2.130000 3.365000 1.080000
v 2.130000 3.365000 1.220000
v 2.130000 3.135000 1.220000
f 381 382 383 384
f 384 383 382 381
usemtl accent
v 2.030000 3.135000 1.080000
v 2.130000 3.135000 1.080000
v 2.130000 3.135000 1.220000
v 2.030000 3.135000 1.220000
f 385 386 387 388
f 388 387 386 385
usemtl accent
v 2.030000 3.365000 1.080000
v 2.030000 3.365000 1.220000
v 2.130000 3.365000 1.220000
v 2.130000 3.365000 1.080000
f 389 390 391 392
f 392 391 390 389
usemtl accent
v 2.030000 3.135000 1.080000
v 2.030000 3.365000 1.080000
v 2.130000 3.365000 1.080000
v 2.130000 3.135000 1.080000
f 393 394 395 396
f 396 395 394 393
usemtl accent
v 2.030000 3.135000 1.220000
v 2.130000 3.135000 1.220000
v 2.130000 3.365000 1.220000
v 2.030000 3.365000 1.220000
f 397 398 399 400
f 400 399 398 397
usemtl rail
v 1.990000 3.602500 0.025000
v 1.990000 3.602500 1.575000
v 1.990000 3.657500 1.575000
v 1.990000 3.657500 0.025000
f 401 402 403 404
f 404 403 402 401
usemtl rail
v 2.050000 3.602500 0.025000
v 2.050000 3.657500 0.025000
v 2.050000 3.657500 1.575000
v 2.050000 3.602500 1.575000
f 405 406 407 408
f 408 407 406 405
usemtl rail
v 1.990000 3.602500 0.025000
v 2.050000 3.602500 0.025000
v 2.050000 3.602500 1.575000
v 1.990000 3.602500 1.575000
f 409 410 411 412
f 412 411 410 409
usemtl rail
v 1.990000 3.657500 0.025000
v 1.990000 3.657500 1.575000
v 2.050000 3.657500 1.575000
v 2.050000 3.657500 0.025000
f 413 414 415 416
f 416 415 414 413
usemtl rail
v 1.990000 3.602500 0.025000
v 1.990000 3.657500 0.025000
v 2.050000 3.657500 0.025000
v 2.050000 3.602500 0.025000
f 417 418 419 420
f 420 419 418 417
usemtl rail
v 1.990000 3.602500 1.575000
v 2.050000 3.602500 1.575000
v 2.050000 3.657500 1.575000
v 1.990000 3.657500 1.575000
f 421 422 423 424
f 424 423 422 421
usemtl accent
v 2.030000 3.515000 0.650000
v 2.030000 3.515000 0.790000
v 2.030000 3.745000 0.790000
v 2.030000 3.745000 0.650000
f 425 426 427 428
f 428 427 426 425
usemtl accent
v 2.130000 3.515000 0.650000
v 2.130000 3.745000 0.650000
v 2.130000 3.745000 0.790000
v 2.130000 3.515000 0.790000
f 429 430 431 432
f 432 431 430 429
usemtl accent
v 2.030000 3.515000 0.650000
v 2.130000 3.515000 0.650000
v 2.130000 3.515000 0.790000
v 2.030000 3.515000 0.790000
f 433 434 435 436
f 436 435 434 433
usemtl accent
v 2.030000 3.745000 0.650000
v 2.030000 3.745000 0.790000
v 2.130000 3.745000 0.790000
v 2.130000 3.745000 0.650000
f 437 438 439 440
f 440 439 438 437
usemtl accent
v 2.030000 3.515000 0.650000
v 2.030000 3.745000 0.650000
v 2.130000 3.745000 0.650000
v 2.130000 3.515000 0.650000
f 441 442 443 444
f 444 443 442 441
usemtl accent
v 2.030000 3.515000 0.790000
v 2.130000 3.515000 0.790000
v 2.130000 3.745000 0.790000
v 2.030000 3.745000 0.790000
f 445 446 447 448
f 448 447 446 445
usemtl housing
v 1.615000 2.220000 -1.150000
v 1.615000 2.220000 1.150000
v 1.615000 2.340000 1.150000
v 1.615000 2.340000 -1.150000
f 449 450 451 452
f 452 451 450 449
usemtl housing
v 2.465000 2.220000 -1.150000
v 2.465000 2.340000 -1.150000
v 2.465000 2.340000 1.150000
v 2.465000 2.220000 1.150000
f 453 454 455 456
f 456 455 454 453
usemtl housing
v 1.615000 2.220000 -1.150000
v 2.465000 2.220000 -1.150000
v 2.465000 2.220000 1.150000
v 1.615000 2.220000 1.150000
f 457 458 459 460
f 460 459 458 457
usemtl housing
v 1.615000 2.340000 -1.150000
v 1.615000 2.340000 1.150000
v 2.465000 2.340000 1.150000
v 2.465000 2.340000 -1.150000
f 461 462 463 464
f 464 463 462 461
usemtl housing
v 1.615000 2.220000 -1.150000
v 1.615000 2.340000 -1.150000
v 2.465000 2.340000 -1.150000
v 2.465000 2.220000 -1.150000
f 465 466 467 468
f 468 467 466 465
usemtl housing
v 1.615000 2.220000 1.150000
v 2.465000 2.220000 1.150000
v 2.465000 2.340000 1.150000
v 1.615000 2.340000 1.150000
f 469 470 471 472
f 472 471 470 469
usemtl accent
v 1.900000 0.120000 -1.070000
v 1.900000 0.120000 -0.970000
v 1.900000 2.120000 -0.970000
v 1.900000 2.120000 -1.070000
f 473 474 475 476
f 476 475 474 473
usemtl accent
v 2.000000 0.120000 -1.070000
v 2.000000 2.120000 -1.070000
v 2.000000 2.120000 -0.970000
v 2.000000 0.120000 -0.970000
f 477 478 479 480
f 480 479 478 477
usemtl accent
v 1.900000 0.120000 -1.070000
v 2.000000 0.120000 -1.070000
v 2.000000 0.120000 -0.970000
v 1.900000 0.120000 -0.970000
f 481 482 483 484
f 484 483 482 481
usemtl accent
v 1.900000 2.120000 -1.070000
v 1.900000 2.120000 -0.970000
v 2.000000 2.120000 -0.970000
v 2.000000 2.120000 -1.070000
f 485 486 487 488
f 488 487 486 485
usemtl accent
v 1.900000 0.120000 -1.070000
v 1.900000 2.120000 -1.070000
v 2.000000 2.120000 -1.070000
v 2.000000 0.120000 -1.070000
f 489 490 491 492
f 492 491 490 489
usemtl accent
v 1.900000 0.120000 -0.970000
v 2.000000 0.120000 -0.970000
v 2.000000 2.120000 -0.970000
v 1.900000 2.120000 -0.970000
f 493 494 495 496
f 496 495 494 493
usemtl accent
v 1.900000 0.120000 0.970000
v 1.900000 0.120000 1.070000
v 1.900000 2.120000 1.070000
v 1.900000 2.120000 0.970000
f 497 498 499 500
f 500 499 498 497
usemtl accent
v 2.000000 0.120000 0.970000
v 2.000000 2.120000 0.970000
v 2.000000 2.120000 1.070000
v 2.000000 0.120000 1.070000
f 501 502 503 504
f 504 503 502 501
usemtl accent
v 1.900000 0.120000 0.970000
v 2.000000 0.120000 0.970000
v 2.000000 0.120000 1.070000
v 1.900000 0.120000 1.070000
f 505 506 507 508
f 508 507 506 505
usemtl accent
v 1.900000 2.120000 0.970000
v 1.900000 2.120000 1.070000
v 2.000000 2.120000 1.070000
v 2.000000 2.120000 0.970000
f 509 510 511 512
f 512 511 510 509
usemtl accent
v 1.900000 0.120000 0.970000
v 1.900000 2.120000 0.970000
v 2.000000 2.120000 0.970000
v 2.000000 0.120000 0.970000
f 513 514 515 516
f 516 515 514 513
usemtl accent
v 1.900000 0.120000 1.070000
v 2.000000 0.120000 1.070000
v 2.000000 2.120000 1.070000
v 1.900000 2.120000 1.070000
f 517 518 519 520
f 520 519 518 517
usemtl housing
v 1.940000 0.000000 -1.940000
v 1.940000 0.000000 -1.360000
v 1.940000 1.160000 -1.360000
v 1.940000 1.160000 -1.940000
f 521 522 523 524
f 524 523 522 521
usemtl housing
v 2.420000 0.000000 -1.940000
v 2.420000 1.160000 -1.940000
v 2.420000 1.160000 -1.360000
v 2.420000 0.000000 -1.360000
f 525 526 527 528
f 528 527 526 525
usemtl housing
v 1.940000 0.000000 -1.940000
v 2.420000 0.000000 -1.940000
v 2.420000 0.000000 -1.360000
v 1.940000 0.000000 -1.360000
f 529 530 531 532
f 532 531 530 529
usemtl housing
v 1.940000 1.160000 -1.940000
v 1.940000 1.160000 -1.360000
v 2.420000 1.160000 -1.360000
v 2.420000 1.160000 -1.940000
f 533 534 535 536
f 536 535 534 533
usemtl housing
v 1.940000 0.000000 -1.940000
v 1.940000 1.160000 -1.940000
v 2.420000 1.160000 -1.940000
v 2.420000 0.000000 -1.940000
f 537 538 539 540
f 540 539 538 537
usemtl housing
v 1.940000 0.000000 -1.360000
v 2.420000 0.000000 -1.360000
v 2.420000 1.160000 -1.360000
v 1.940000 1.160000 -1.360000
f 541 542 543 544
f 544 543 542 541
usemtl accent
v 2.417500 0.730000 -1.865000
v 2.417500 0.730000 -1.435000
v 2.417500 1.110000 -1.435000
v 2.417500 1.110000 -1.865000
f 545 546 547 548
f 548 547 546 545
usemtl accent
v 2.462500 0.730000 -1.865000
v 2.462500 1.110000 -1.865000
v 2.462500 1.110000 -1.435000
v 2.462500 0.730000 -1.435000
f 549 550 551 552
f 552 551 550 549
usemtl accent
v 2.417500 0.730000 -1.865000
v 2.462500 0.730000 -1.865000
v 2.462500 0.730000 -1.435000
v 2.417500 0.730000 -1.435000
f 553 554 555 556
f 556 555 554 553
usemtl accent
v 2.417500 1.110000 -1.865000
v 2.417500 1.110000 -1.435000
v 2.462500 1.110000 -1.435000
v 2.462500 1.110000 -1.865000
f 557 558 559 560
f 560 559 558 557
usemtl accent
v 2.417500 0.730000 -1.865000
v 2.417500 1.110000 -1.865000
v 2.462500 1.110000 -1.865000
v 2.462500 0.730000 -1.865000
f 561 562 563 564
f 564 563 562 561
usemtl accent
v 2.417500 0.730000 -1.435000
v 2.462500 0.730000 -1.435000
v 2.462500 1.110000 -1.435000
v 2.417500 1.110000 -1.435000
f 565 566 567 568
f 568 567 566 565
usemtl rail
v 2.420000 0.585000 -1.810000
v 2.420000 0.585000 -1.490000
v 2.420000 0.635000 -1.490000
v 2.420000 0.635000 -1.810000
f 569 570 571 572
f 572 571 570 569
usemtl rail
v 2.480000 0.585000 -1.810000
v 2.480000 0.635000 -1.810000
v 2.480000 0.635000 -1.490000
v 2.480000 0.585000 -1.490000
f 573 574 575 576
f 576 575 574 573
usemtl rail
v 2.420000 0.585000 -1.810000
v 2.480000 0.585000 -1.810000
v 2.480000 0.585000 -1.490000
v 2.420000 0.585000 -1.490000
f 577 578 579 580
f 580 579 578 577
usemtl rail
v 2.420000 0.635000 -1.810000
v 2.420000 0.635000 -1.490000
v 2.480000 0.635000 -1.490000
v 2.480000 0.635000 -1.810000
f 581 582 583 584
f 584 583 582 581
usemtl rail
v 2.420000 0.585000 -1.810000
v 2.420000 0.635000 -1.810000
v 2.480000 0.635000 -1.810000
v 2.480000 0.585000 -1.810000
f 585 586 587 588
f 588 587 586 585
usemtl rail
v 2.420000 0.585000 -1.490000
v 2.480000 0.585000 -1.490000
v 2.480000 0.635000 -1.490000
v 2.420000 0.635000 -1.490000
f 589 590 591 592
f 592 591 590 589
