# Derived from Kenney CC0. Generated by scripts/GenerateTitleMaterials.py.
mtllib sidewalk.mtl
v -0.5 0 -0.5 1 1 1
v 0.5 0 -0.5 1 1 1
v -0.5 0.02 -0.5 1 1 1
v 0.5 0.02 -0.5 1 1 1
v 0.5 0 0.5 1 1 1
v -0.5 0 0.5 1 1 1
v 0.5 0.02 0.5 1 1 1
v -0.5 0.02 0.5 1 1 1
vn 0 0 -1
vn 0 0 1
vn 1 0 0
vn 0 1 0
vn 0 -1 0
vn -1 0 0
vt 0.40625 0.375
vt -1.00000000 0.10000000
vt 1.00000000 0.00000000
vt -1.00000000 0.00000000
vt 1.00000000 0.00000000
vt -1.00000000 0.10000000
vt 1.00000000 0.10000000
vt 1.00000000 0.10000000
vt -1.00000000 0.00000000
vt 1.00000000 0.00000000
vt -1.00000000 0.00000000
vt 1.00000000 0.10000000
vt -1.00000000 0.10000000
vt 2.50000000 0.10000000
vt -2.50000000 0.00000000
vt -2.50000000 0.10000000
vt -2.50000000 0.00000000
vt 2.50000000 0.10000000
vt 2.50000000 0.00000000
vt -1.00000000 -2.50000000
vt 1.00000000 2.50000000
vt 1.00000000 -2.50000000
vt 1.00000000 2.50000000
vt -1.00000000 -2.50000000
vt -1.00000000 2.50000000
vt -1.00000000 2.50000000
vt 1.00000000 -2.50000000
vt 1.00000000 2.50000000
vt 1.00000000 -2.50000000
vt -1.00000000 2.50000000
vt -1.00000000 -2.50000000
vt 2.50000000 0.00000000
vt -2.50000000 0.10000000
vt -2.50000000 0.00000000
vt -2.50000000 0.10000000
vt 2.50000000 0.00000000
vt 2.50000000 0.10000000
vt -1.00000000 0.10000000
vt 1.00000000 0.00000000
vt -1.00000000 0.00000000
vt 1.00000000 0.00000000
vt -1.00000000 0.10000000
vt 1.00000000 0.10000000
vt 1.00000000 0.10000000
vt -1.00000000 0.00000000
vt 1.00000000 0.00000000
vt -1.00000000 0.00000000
vt 1.00000000 0.10000000
vt -1.00000000 0.10000000
vt 2.50000000 0.10000000
vt -2.50000000 0.00000000
vt -2.50000000 0.10000000
vt -2.50000000 0.00000000
vt 2.50000000 0.10000000
vt 2.50000000 0.00000000
vt -1.00000000 -2.50000000
vt 1.00000000 2.50000000
vt 1.00000000 -2.50000000
vt 1.00000000 2.50000000
vt -1.00000000 -2.50000000
vt -1.00000000 2.50000000
vt -1.00000000 2.50000000
vt 1.00000000 -2.50000000
vt 1.00000000 2.50000000
vt 1.00000000 -2.50000000
vt -1.00000000 2.50000000
vt -1.00000000 -2.50000000
vt 2.50000000 0.00000000
vt -2.50000000 0.10000000
vt -2.50000000 0.00000000
vt -2.50000000 0.10000000
vt 2.50000000 0.00000000
vt 2.50000000 0.10000000
usemtl paving
f 3/2/1 2/3/1 1/4/1
f 2/5/1 3/6/1 4/7/1
f 7/8/2 6/9/2 5/10/2
f 6/11/2 7/12/2 8/13/2
f 7/14/3 2/15/3 4/16/3
f 2/17/3 7/18/3 5/19/3
f 3/20/4 7/21/4 4/22/4
f 7/23/4 3/24/4 8/25/4
f 6/26/5 2/27/5 5/28/5
f 2/29/5 6/30/5 1/31/5
f 6/32/6 3/33/6 1/34/6
f 3/35/6 6/36/6 8/37/6
f 3/38/1 2/39/1 1/40/1
f 2/41/1 3/42/1 4/43/1
f 7/44/2 6/45/2 5/46/2
f 6/47/2 7/48/2 8/49/2
f 7/50/3 2/51/3 4/52/3
f 2/53/3 7/54/3 5/55/3
f 3/56/4 7/57/4 4/58/4
f 7/59/4 3/60/4 8/61/4
f 6/62/5 2/63/5 5/64/5
f 2/65/5 6/66/5 1/67/5
f 6/68/6 3/69/6 1/70/6
f 3/71/6 6/72/6 8/73/6
