# Derived from Kenney CC0. Generated by scripts/GenerateTitleMaterials.py.
mtllib road-straight.mtl
v 0.5 0.01 -0.4 1 1 1
v -0.5 0.01 -0.4 1 1 1
v 0.5 0.02 -0.4 1 1 1
v -0.5 0.02 -0.4 1 1 1
v -0.5 0 -0.5 1 1 1
v 0.5 0 -0.5 1 1 1
v -0.5 0.02 -0.5 1 1 1
v 0.5 0.02 -0.5 1 1 1
v -0.5 0.01 0.4 1 1 1
v 0.5 0.01 0.4 1 1 1
v -0.5 0.02 0.4 1 1 1
v 0.5 0.02 0.4 1 1 1
v 0.5 0 0.5 1 1 1
v -0.5 0 0.5 1 1 1
v 0.5 0.02 0.5 1 1 1
v -0.5 0.02 0.5 1 1 1
v 0.5 0.01 0.3 1 1 1
v 0.5 0.01 0.01 1 1 1
v 0.5 0.01 -0.01 1 1 1
v 0.5 0.01 -0.3 1 1 1
v -0.5 0.01 0.3 1 1 1
v -0.5 0.01 0.01 1 1 1
v -0.5 0.01 -0.01 1 1 1
v -0.5 0.01 -0.3 1 1 1
vn 0 0 1
vn 0 0 -1
vn 0 -1 0
vn 0 1 0
vn 1 0 0
vn -1 0 0
vt 0.46875 0.375
vt 0.46875 0.475
vt 0.46875 0.275
vt 0.34375 0.225
vt 0.34375 0.125
vt 0.34375 0.025
vt 0.28125 0.125
vt 0.03125 0.125
vt 0.40625 0.125
vt 1.00000000 0.02000000
vt -1.00000000 0.60000000
vt 1.00000000 0.60000000
vt -1.00000000 0.60000000
vt 1.00000000 0.02000000
vt -1.00000000 0.02000000
vt -1.00000000 -0.60000000
vt 1.00000000 -0.02000000
vt 1.00000000 -0.60000000
vt 1.00000000 -0.02000000
vt -1.00000000 -0.60000000
vt -1.00000000 -0.02000000
vt -1.00000000 -0.80000000
vt 1.00000000 -0.60000000
vt 1.00000000 -0.80000000
vt 1.00000000 -0.60000000
vt -1.00000000 -0.80000000
vt -1.00000000 -0.60000000
vt -1.00000000 0.60000000
vt 1.00000000 0.80000000
vt 1.00000000 0.60000000
vt 1.00000000 0.80000000
vt -1.00000000 0.60000000
vt -1.00000000 0.80000000
vt 1.00000000 0.02000000
vt -1.00000000 0.60000000
vt 1.00000000 0.60000000
vt -1.00000000 0.60000000
vt 1.00000000 0.02000000
vt -1.00000000 0.02000000
vt -1.00000000 -0.60000000
vt 1.00000000 -0.02000000
vt 1.00000000 -0.60000000
vt 1.00000000 -0.02000000
vt -1.00000000 -0.60000000
vt -1.00000000 -0.02000000
vt -1.00000000 -0.80000000
vt 1.00000000 -0.60000000
vt 1.00000000 -0.80000000
vt 1.00000000 -0.60000000
vt -1.00000000 -0.80000000
vt -1.00000000 -0.60000000
vt -1.00000000 0.60000000
vt 1.00000000 0.80000000
vt 1.00000000 0.60000000
vt 1.00000000 0.80000000
vt -1.00000000 0.60000000
vt -1.00000000 0.80000000
usemtl palette
f 3/2/1 2/1/1 1/1/1
f 2/1/1 3/2/1 4/2/1
f 7/2/2 6/3/2 5/3/2
f 6/3/2 7/2/2 8/2/2
f 11/2/2 10/1/2 9/1/2
f 10/1/2 11/2/2 12/2/2
f 14/3/3 6/3/3 13/3/3
f 6/3/3 14/3/3 5/3/3
f 7/2/4 3/2/4 8/2/4
f 3/2/4 7/2/4 4/2/4
f 15/2/1 14/3/1 13/3/1
f 14/3/1 15/2/1 16/2/1
f 11/2/4 15/2/4 12/2/4
f 15/2/4 11/2/4 16/2/4
f 15/4/5 10/5/5 12/4/5
f 13/6/5 10/5/5 15/4/5
f 13/6/5 17/5/5 10/5/5
f 13/6/5 18/5/5 17/5/5
f 13/6/5 19/5/5 18/5/5
f 13/6/5 20/5/5 19/5/5
f 13/6/5 1/5/5 20/5/5
f 6/6/5 1/5/5 13/6/5
f 6/6/5 3/4/5 1/5/5
f 3/4/5 6/6/5 8/4/5
f 11/4/6 14/6/6 16/4/6
f 9/5/6 14/6/6 11/4/6
f 21/5/6 14/6/6 9/5/6
f 22/5/6 14/6/6 21/5/6
f 23/5/6 14/6/6 22/5/6
f 24/5/6 14/6/6 23/5/6
f 2/5/6 14/6/6 24/5/6
f 2/5/6 5/6/6 14/6/6
f 5/6/6 2/5/6 7/4/6
f 4/4/6 7/4/6 2/5/6
usemtl asphalt
f 18/10/4 21/11/4 17/12/4
f 21/13/4 18/14/4 22/15/4
f 24/16/4 19/17/4 20/18/4
f 19/19/4 24/20/4 23/21/4
usemtl asphalt_edge
f 2/22/4 20/23/4 1/24/4
f 20/25/4 2/26/4 24/27/4
f 21/28/4 10/29/4 17/30/4
f 10/31/4 21/32/4 9/33/4
usemtl palette
f 23/9/4 18/9/4 19/9/4
f 18/9/4 23/9/4 22/9/4
f 3/2/1 2/1/1 1/1/1
f 2/1/1 3/2/1 4/2/1
f 7/2/2 6/3/2 5/3/2
f 6/3/2 7/2/2 8/2/2
f 11/2/2 10/1/2 9/1/2
f 10/1/2 11/2/2 12/2/2
f 14/3/3 6/3/3 13/3/3
f 6/3/3 14/3/3 5/3/3
f 7/2/4 3/2/4 8/2/4
f 3/2/4 7/2/4 4/2/4
f 15/2/1 14/3/1 13/3/1
f 14/3/1 15/2/1 16/2/1
f 11/2/4 15/2/4 12/2/4
f 15/2/4 11/2/4 16/2/4
f 15/4/5 10/5/5 12/4/5
f 13/6/5 10/5/5 15/4/5
f 13/6/5 17/5/5 10/5/5
f 13/6/5 18/5/5 17/5/5
f 13/6/5 19/5/5 18/5/5
f 13/6/5 20/5/5 19/5/5
f 13/6/5 1/5/5 20/5/5
f 6/6/5 1/5/5 13/6/5
f 6/6/5 3/4/5 1/5/5
f 3/4/5 6/6/5 8/4/5
f 11/4/6 14/6/6 16/4/6
f 9/5/6 14/6/6 11/4/6
f 21/5/6 14/6/6 9/5/6
f 22/5/6 14/6/6 21/5/6
f 23/5/6 14/6/6 22/5/6
f 24/5/6 14/6/6 23/5/6
f 2/5/6 14/6/6 24/5/6
f 2/5/6 5/6/6 14/6/6
f 5/6/6 2/5/6 7/4/6
f 4/4/6 7/4/6 2/5/6
usemtl asphalt
f 18/34/4 21/35/4 17/36/4
f 21/37/4 18/38/4 22/39/4
f 24/40/4 19/41/4 20/42/4
f 19/43/4 24/44/4 23/45/4
usemtl asphalt_edge
f 2/46/4 20/47/4 1/48/4
f 20/49/4 2/50/4 24/51/4
f 21/52/4 10/53/4 17/54/4
f 10/55/4 21/56/4 9/57/4
usemtl palette
f 23/9/4 18/9/4 19/9/4
f 18/9/4 23/9/4 22/9/4
